<!-- icon666.com - MILLIONS vector ICONS FREE --><svg viewBox="0 0 64 64" xmlns="http://www.w3.org/2000/svg"><g fill-rule="evenodd"><path d="m48 64h-32a16.0007 16.0007 0 0 1 -16-16v-32a16.0007 16.0007 0 0 1 16-16h32a16 16 0 0 1 16 16v32a16 16 0 0 1 -16 16" fill="#ff9600"></path><path d="m30 18h18a9.0006 9.0006 0 0 0 .92-17.954c-.306-.017-.609-.046-.92-.046h-32a16.0007 16.0007 0 0 0 -16 16v32a30.0007 30.0007 0 0 1 30-30" fill="#ffb400"></path><path d="m48 32a16 16 0 1 0 16 16v-32a16 16 0 0 1 -16 16" fill="#ff7800"></path></g><path d="m32 26.012a4.9755 4.9755 0 1 1 4.975-4.976 4.9754 4.9754 0 0 1 -4.975 4.976zm0-17.012a12.0365 12.0365 0 1 0 12.036 12.036 12.0364 12.0364 0 0 0 -12.036-12.036z" fill="#fff"></path><path d="m36.445 42.65a19.5834 19.5834 0 0 0 7.859-3.386 3.273 3.273 0 1 0 -4.095-5.107 14.2092 14.2092 0 0 1 -8.177 2.39 14.549 14.549 0 0 1 -8.241-2.39 3.273 3.273 0 0 0 -4.095 5.107 20.0286 20.0286 0 0 0 8.115 3.424l-6.904 7.215a3.2727 3.2727 0 0 0 4.712 4.543l6.414-6.832 7.061 6.876a3.2728 3.2728 0 0 0 4.625-4.632z" fill="#fff"></path><path d="" fill="#fff"></path></svg>